<?xml version="1.0" encoding="utf-8"?>
<!-- Generator: Adobe Illustrator 23.1.0, SVG Export Plug-In . SVG Version: 6.00 Build 0)  -->
<svg version="1.1" id="Layer_1" xmlns="http://www.w3.org/2000/svg" xmlns:xlink="http://www.w3.org/1999/xlink" x="0px" y="0px"
	 viewBox="0 0 1066.03 119.77" style="enable-background:new 0 0 1066.03 119.77;" xml:space="preserve">
<style type="text/css">
	.st0{fill:#CC2027;stroke:#CC2027;stroke-miterlimit:10;}
</style>
<path xmlns="http://www.w3.org/2000/svg" class="st0" d="M32.82,73.99c-0.36,0.89-0.94,1.14-1.79,0.6c0.34-0.45,0.68-0.91,1.03-1.36  C32.32,73.48,32.57,73.74,32.82,73.99z"/>
<path xmlns="http://www.w3.org/2000/svg" class="st0" d="M1.74,119.77c-1.94-1.96-2.2-3.99-1.06-6.64C12.8,84.94,25.25,56.89,39.36,29.62c2.55-4.93,11-8.7,16.65-7.85  c3.56,0.53,1.78,2.4,1.02,3.85c-5.22,10-10.53,19.96-15.78,29.95c-3.09,5.87-6.13,11.77-9.19,17.66c-0.34,0.45-0.68,0.91-1.03,1.36  c0.84,0.54,1.42,0.29,1.79-0.6c15.71-13.31,31.4-26.65,47.16-39.89c3.94-3.31,8.07-6.41,12.24-9.42c5.83-4.19,13.28-3.86,18.85,0.64  c3.66,2.95,3.53,5-0.56,7.53C93.09,43.63,75.64,54.39,57.3,65.71c3.8,0,6.54-0.2,9.25,0.04c5.57,0.49,7.99,3.46,7.36,9.02  c-0.66,5.86-3.32,11.08-5.67,16.38c-2.01,4.54-4.11,9.05-6.02,13.64c-0.69,1.65-1.35,3.67,0.16,5.15c1.73,1.69,3.78,0.67,5.58-0.14  c5.06-2.27,9.25-5.83,13.51-9.27c10.08-8.12,19.26-17.32,29.91-24.75c2.09,0.12,2.28,1.59,2.27,3.21  c-11.97,10.29-23.19,21.45-35.79,31c-5.19,3.94-10.67,7.39-17.73,6.76c-8.07-0.71-11.64-4.88-10.77-12.89  c0.64-5.83,2.9-11.23,4.54-16.79c0.75-2.54,1.67-5.06,2.19-7.65c1.01-5.07-1.16-7.22-6.31-6.42c-3.52,0.55-6.43,2.43-9.5,4.13  c-11.91,6.57-20.77,15.71-25.67,28.55c-1,2.62-2.84,4.91-3.85,7.52c-1.19,3.07-3.23,5.11-6.04,6.56  C3.74,119.77,2.74,119.77,1.74,119.77z"/>


<path xmlns="http://www.w3.org/2000/svg" class="st0" d="M120.29,74.55c0.24-0.42,0.59-0.85,1.04-0.42c0.16,0.16-0.13,0.78-0.22,1.19  C120.84,75.07,120.57,74.81,120.29,74.55z"/>
<path xmlns="http://www.w3.org/2000/svg" class="st0" d="M113.66,78.97c0.01-1.61-0.18-3.08-2.27-3.21c7.38-6.9,16.25-11.54,25.4-15.36c8.17-3.41,16.64-1.97,24.75,1.34  c1.55,0.63,2.76,1.56,1.97,3.35c-0.64,1.46-2.06,1.41-3.44,1c-2.07-0.62-4.11-1.33-6.22-1.77c-10.57-2.25-20.65,5.2-22.05,16.85  c6.99-3.02,12.72-7.48,18.9-11.1c1.99-1.17,3.95-1.86,5.98-0.2c1.54,1.26,3.54,2.61,2.97,4.78c-0.52,1.96-2.01,3.67-3.19,5.68  c3.5,1.39,6.42-0.03,9.28-1c11.93-4.03,23.29-9.42,34.56-14.98c1.63-0.81,3.2-1.54,5.08-1.66c4.66-0.31,6.5,1.89,5.3,6.55  c-0.39,0.52-0.78,1.04-1.17,1.56c0.11,0.45,0.21,0.9,0.32,1.35c0.22-0.36,0.44-0.71,0.66-1.07c0.47-0.26,0.94-0.52,1.42-0.78  c4.81-2.82,9.08-6.55,14.39-8.52c2.42,1.62-0.07,3.4,0.16,5.1c-8.34,2.81-14.79,8.48-21.23,14.11c-2.44,2.13-4.77,4.44-6.63,7.2  c-1.79,2.66-4.3,1.81-6.55,0.48c-2.39-1.41-2.65-3.37-1.34-5.78c1.41-2.58,2.61-5.27,3.9-7.91c0.42-0.85,1.42-1.85,0.51-2.63  c-1.14-0.98-2.39-0.05-3.49,0.58c-6.9,3.98-14.33,6.77-21.76,9.5c-4.35,1.6-8.82,2.98-13.34,3.95c-7.48,1.6-10.29-1.19-8.77-9.13  c-4.08,2.29-7.71,4.4-11.4,6.39c-3.2,1.73-6.4,3.53-10.03,4.27c-6.53,1.34-8.93-1.17-7.09-7.47c0.51-1.75,1.23-3.43,1.85-5.14  c0.08-0.41,0.38-1.04,0.22-1.19c-0.44-0.43-0.79,0-1.04,0.42C118.08,76.03,115.87,77.5,113.66,78.97z M207.03,74.23  c0.26-0.14,0.52-0.28,0.77-0.42c-0.14-0.21-0.26-0.43-0.43-0.6c-0.03-0.03-0.37,0.11-0.38,0.2  C206.96,73.67,207.01,73.95,207.03,74.23z"/>


<path xmlns="http://www.w3.org/2000/svg" class="st0" d="M207.03,74.23c-0.02-0.28-0.08-0.56-0.04-0.83c0.01-0.09,0.35-0.23,0.38-0.2c0.17,0.17,0.29,0.4,0.43,0.6  C207.55,73.95,207.29,74.09,207.03,74.23z"/>
<path xmlns="http://www.w3.org/2000/svg" class="st0" d="M211.92,70.31c-0.47,0.26-0.94,0.52-1.42,0.78c-0.33-0.09-0.66-0.19-0.98-0.28c0.39-0.52,0.78-1.04,1.17-1.56  C211.1,69.61,211.51,69.96,211.92,70.31z"/>
<path xmlns="http://www.w3.org/2000/svg" class="st0" d="M226.48,66.89c-0.24-1.69,2.25-3.47-0.16-5.1c3.12-2.37,6.65-3.72,10.54-3.87c4.66-0.18,6.36,2.28,4.68,6.62  c-0.78,2.01-1.9,3.88-2.62,5.91c-1.41,3.95-0.65,4.82,3.47,3.91c12.68-2.8,24.92-6.99,36.62-12.59c9.24-4.42,18.32-3.71,27.53-0.32  c1.55,0.57,3.55,1.22,2.79,3.37c-0.86,2.44-3.02,1.49-4.67,0.95c-3.17-1.04-6.32-2-9.72-1.87c-8.76,0.34-16.92,8.27-17.16,17.19  c6.68-3.06,12.36-7.36,18.47-10.91c3.73-2.17,8.24-0.47,9.16,3.31c0.71,2.93-2.61,4.07-3.07,7.37c9.92-0.05,17.9-5.49,26.64-8.19  c1.94,0.16,2.53,1.36,2.4,3.11c-9.19,4.68-18.8,8.29-28.84,10.58c-7.55,1.72-10.37-0.87-9.37-8.51c-3.97,1.19-7,3.75-10.43,5.5  c-3.99,2.04-7.84,4.42-12.41,4.9c-4.63,0.49-6.51-1.52-5.8-6.13c0.54-3.49,2.45-6.46,3.83-9.65c-1.31-1.22-2.47-0.36-3.67,0.03  c-9.13,2.99-18.2,6.21-27.72,7.85c-0.33,0.06-0.64,0.19-0.97,0.23c-8.95,0.93-15.06,1.39-9.66-11.27  C226.62,68.61,226.44,67.71,226.48,66.89z"/>


<path xmlns="http://www.w3.org/2000/svg" class="st0" d="M209.52,70.82c0.33,0.09,0.66,0.19,0.98,0.28c-0.22,0.36-0.44,0.71-0.66,1.07  C209.73,71.71,209.63,71.27,209.52,70.82z"/>
<path xmlns="http://www.w3.org/2000/svg" class="st0" d="M328.96,72.67c4.32-2.09,8.5-4.55,12.98-6.16c5.06-1.82,8.28-4.96,10.17-9.9c1.06-2.75,2.67-5.29,4.44-8.69  c-5.19,0-9.89-0.01-14.59,0c-1.36,0-3.12,0.03-3.29-1.49c-0.21-2,1.74-2.16,3.21-2.19c3.99-0.09,8.01-0.31,11.97,0.03  c3.66,0.31,5.58-0.94,7.25-4.28c4.62-9.22,9.85-18.11,16.89-25.76c4.15-4.51,8.9-8.07,15.4-8.15c6.66-0.08,8.79,2.61,7.13,9.04  c-2.27,8.74-7.56,15.79-12.95,22.78c-1.09,1.41-2.21,2.79-3.95,4.99c6.22,0,11.61-0.01,17,0c1.66,0,3.33-0.01,4.99,0.09  c1.21,0.07,2.45,0.5,2.57,1.87c0.16,1.83-1.36,2.13-2.7,2.16c-4.32,0.1-8.7,0.5-12.97,0.02c-8.45-0.95-14.93,1.4-21.21,7.63  c-5.98,5.94-13.29,10.45-15.6,19.25c-0.74,2.82-2.6,5.83-0.07,8.47c2.23,2.33,5.29,1.57,8.04,0.96  c14.56-3.24,27.68-10.16,41.18-16.11c1.97-0.87,3.93-1.79,5.87-2.73c1.02-0.49,1.98-0.52,2.67,0.42c0.93,1.27,0,2.16-0.86,2.94  c-0.48,0.44-1.1,0.75-1.69,1.05c-15.86,8.08-32.06,15.27-49.52,19.27c-3.12,0.72-6.27,0.83-9.42,0.75  c-7.92-0.21-11.1-4.51-9.06-12.16c0.51-1.9,1.15-3.76,2.02-6.57c-4.98,2.05-9.27,3.8-13.55,5.56  C331.49,74.03,330.9,72.83,328.96,72.67z M371.69,43.42c3.06,0.46,4.99,0.3,6.68-1.6c6.07-6.86,11.83-13.95,15.91-22.19  c1-2.01,3.57-4.81,1.02-6.54c-2.45-1.66-4.85,0.97-6.73,2.88c-0.81,0.83-1.59,1.71-2.26,2.65C380.8,26.31,376.83,34.89,371.69,43.42  z"/>



<path xmlns="http://www.w3.org/2000/svg" class="st0" d="M513.35,74.06c-0.17,0.44-0.41,0.94-0.93,0.54c-0.14-0.11,0.15-0.78,0.24-1.2  C512.9,73.61,513.13,73.83,513.35,74.06z"/>
<path xmlns="http://www.w3.org/2000/svg" class="st0" d="M596.7,77.16c-11.39,9.92-22.71,19.92-34.19,29.74c-4.54,3.88-9.36,7.48-15.23,9.21  c-12.05,3.55-19.74-3.47-16.75-15.53c1.67-6.74,4.14-13.28,5.95-20c1.71-6.35-1.23-9.64-7.22-7.12  c-11.11,4.67-21.94,10.23-28.2,21.44c-3.31,5.93-6.6,11.89-9.5,18.03c-1.46,3.09-3.3,5.45-6.38,6.85c-1,0-2,0-3,0  c-1.86-2.05-1.97-4.17-0.86-6.74c12.21-28.27,24.66-56.44,38.85-83.79c2.44-4.7,11.73-8.58,16.84-7.46c3.17,0.7,1.39,2.42,0.76,3.64  c-3.95,7.65-8.02,15.24-12.02,22.87c-4.38,8.36-8.74,16.73-13.1,25.1c-0.09,0.42-0.38,1.09-0.24,1.2c0.52,0.41,0.76-0.1,0.93-0.54  c13.53-11.51,27-23.08,40.62-34.49c6.11-5.12,12.39-10.04,18.78-14.81c5.73-4.28,12.63-4.05,18.44,0.16  c4.21,3.05,4.11,5.3-0.38,8.09C574.61,43.11,558.4,53.2,542.2,63.29c-0.92,0.57-1.8,1.22-3.53,2.4c3.48,0,5.89-0.16,8.28,0.03  c5.96,0.49,8.6,3.91,7.55,9.77c-1.18,6.61-4.22,12.53-7.03,18.54c-1.75,3.75-3.29,7.6-4.8,11.45c-0.6,1.53-1.13,3.3,0.46,4.6  c1.48,1.2,3.12,0.62,4.72,0.02c3.47-1.3,6.5-3.38,9.31-5.69c11.28-9.3,22.46-18.71,33.71-28.05c1.26-1.05,2.72-1.86,4.09-2.79  C595.07,74.99,595.06,76.48,596.7,77.16z"/>


<path xmlns="http://www.w3.org/2000/svg" class="st0" d="M629.32,53.19c-0.32,0.18-0.64,0.35-0.96,0.53c-0.27-0.53-0.01-0.82,0.45-1.02  C628.98,52.86,629.15,53.02,629.32,53.19z"/>
<path xmlns="http://www.w3.org/2000/svg" class="st0" d="M620.32,71.15c-0.23,0.43-0.56,0.87-1.02,0.45c-0.16-0.15,0.13-0.79,0.21-1.2  C619.78,70.64,620.05,70.9,620.32,71.15z"/>
<path xmlns="http://www.w3.org/2000/svg" class="st0" d="M596.7,77.16c-1.64-0.69-1.63-2.17-1.74-3.59c2.8-2.9,6.15-5.23,9.78-6.69c5.05-2.02,7.65-5.83,10.05-10.3  c5.49-10.23,11.16-20.36,16.92-30.43C637.9,15.31,644.7,4.98,656.99,0c1.33,0,2.66,0,4,0c5.43,2.38,6.22,4.06,4.45,10.25  c-2.34,8.21-6.68,15.44-11.49,22.39c-7.97,11.52-17.35,21.74-28.87,29.79c-2.95,2.06-4.17,4.99-5.57,7.96  c-0.08,0.42-0.37,1.05-0.21,1.2c0.46,0.42,0.79-0.02,1.02-0.45c5.66-3.43,11.01-7.38,17.14-10.01c1.67-0.72,3.38-1.39,5.13-1.88  c2.49-0.7,5.2-0.9,6.97,1.21c1.67,2,0.72,4.43-0.34,6.57c-2.06,4.15-4.2,8.27-6.23,12.44c-0.48,0.98-1.55,2.11-0.65,3.16  c0.85,0.99,2.25,0.36,3.3,0.08c8.03-2.13,15.71-5.21,23.31-8.53c2.28-0.99,4.59-1.91,6.88-2.86c0.05,1.44,0.1,2.88,0.14,4.32  c-12.7,5.71-25.41,11.43-39.11,14.32c-7.97,1.68-10.38-1.28-7.49-8.89c1.68-4.43,3.91-8.65,6.47-14.19  c-9.88,5.09-18.03,10.42-24.54,17.97c-1.62,1.88-3,3.36-5.74,2.95c-4-0.59-5.24-2.35-3.71-6.07c1.3-3.17,2.83-6.25,4.52-9.93  C602,72.37,599.83,75.67,596.7,77.16z M629.32,53.19c12.18-10.09,21.43-22.54,28.77-36.42c1.57-2.97,5.32-7.28,1.88-9.54  c-3.15-2.07-6.27,2.58-8.49,5.35c-9.75,12.12-16.12,26.18-22.66,40.12c-0.47,0.2-0.72,0.5-0.46,1.02  C628.68,53.54,629,53.37,629.32,53.19z"/>


<path xmlns="http://www.w3.org/2000/svg" class="st0" d="M721.33,78.22c0.43-0.3,0.73-1.21,1.35-0.6c0.22,0.21-0.19,1.07-0.32,1.64  C722.02,78.91,721.67,78.56,721.33,78.22z"/>
<path xmlns="http://www.w3.org/2000/svg" class="st0" d="M764.86,68.85c0.01,1.36,0.02,2.73,0.03,4.09c-10.83,5.66-22.02,10.44-33.73,13.94  c-1.26,0.38-2.56,0.71-3.86,0.86c-5.86,0.69-7.09-0.84-5.42-6.57c0.19-0.63,0.33-1.28,0.49-1.92c0.12-0.56,0.54-1.42,0.32-1.64  c-0.62-0.61-0.92,0.3-1.35,0.6c-5.9,4.34-11.85,8.6-19.3,9.87c-9.25,1.58-12.37-2.04-9.16-10.77c1.36-3.72,3.19-7.26,5.28-11.92  c-8.01,3.3-14.6,7.94-22.17,10.27c-0.05-1.44-0.1-2.88-0.14-4.32c9.84-4.27,18.63-10.96,29.54-12.79c2.51-0.42,5.38-1.13,7.11,0.75  c1.96,2.14-0.01,4.75-0.99,6.93c-1.77,3.93-3.86,7.71-5.78,11.58c-0.65,1.3-1.82,2.93-0.57,4.07c1.11,1.02,2.79-0.04,4.14-0.56  c4.76-1.82,8.43-5.25,12.26-8.43c4.47-3.72,8.87-7.52,13.41-11.16c1.41-1.13,3.32-2.23,5.04-1.07c2.2,1.47,0.29,3.44-0.3,4.86  c-2.21,5.32-4.77,10.5-7.62,16.63C744.27,79.16,754.21,73.11,764.86,68.85z"/>


<path xmlns="http://www.w3.org/2000/svg" class="st0" d="M798.36,67.16c0.4,0.01,0.8,0.02,1.19,0.03c-0.15,0.31-0.31,0.63-0.46,0.94  C798.84,67.81,798.6,67.48,798.36,67.16z"/>
<path xmlns="http://www.w3.org/2000/svg" class="st0" d="M783.35,71.52c-0.43,0.18-1.08,0.64-1.24,0.5c-0.75-0.61-0.12-1.1,0.34-1.55  C782.75,70.83,783.05,71.17,783.35,71.52z"/>
<path xmlns="http://www.w3.org/2000/svg" class="st0" d="M873.74,68.59c-8.19,5.66-16.65,10.97-22.35,19.53c-1.93,2.89-4.7,1.73-7.14,0.44  c-2.38-1.26-2.55-3.14-1.43-5.44c1.55-3.19,2.95-6.46,4.97-10.91c-8.28,3.43-15.2,6.37-22.19,9.17c-7.23,2.9-14.43,5.92-22.04,7.75  c-1.92,0.46-3.92,0.78-5.89,0.79c-4.48,0.02-5.86-1.76-5.15-6.3c0.89-5.71,4.36-10.33,6.57-15.48c0.15-0.31,0.31-0.63,0.46-0.94  c-0.4-0.01-0.8-0.02-1.19-0.03c-8.57,4.67-16.88,9.71-23.27,17.27c-2.23,2.64-4.6,2-7.1,0.87c-2.78-1.26-2.63-3.41-1.64-5.81  c0.93-2.27,1.76-4.57,2.63-6.86c-1.65-1.61-2.73,0.75-4.09,0.31c-0.01-1.36-0.02-2.73-0.03-4.09c3.35-1.78,6.69-3.59,10.06-5.33  c2.7-1.4,5.1-0.74,7.36,1.11c2.34,1.92,0.79,3.88,0.17,5.85c-0.46,0.45-1.09,0.93-0.34,1.55c0.17,0.14,0.82-0.32,1.24-0.5  c4.9-3.09,9.77-6.23,14.72-9.24c1.69-1.03,3.51-1.88,5.37-2.55c3.28-1.19,7.11-2.74,9.84,0.06c2.85,2.93-0.03,6.15-1.32,9.09  c-1.97,4.51-4.92,8.59-6.26,13.68c3.83,0.37,7.05-1.09,10.23-2.27c13.34-4.92,26.7-9.82,38.91-17.3c2.73-1.67,5.12-0.62,7.31,1.07  c2.63,2.03,0.88,4.11-0.13,6.14c-0.31,0.44-0.61,0.89-0.92,1.33c0.78,0.43,1.39,0.33,1.77-0.54c3.57-2.22,7.14-4.45,10.71-6.67  C873.64,65.75,873.69,67.17,873.74,68.59z M858.29,75.22c0.26-0.14,0.51-0.28,0.77-0.42c-0.14-0.2-0.26-0.43-0.43-0.6  c-0.03-0.03-0.37,0.11-0.38,0.19C858.21,74.67,858.27,74.95,858.29,75.22z"/>



<path xmlns="http://www.w3.org/2000/svg" class="st0" d="M858.29,75.22c-0.02-0.28-0.07-0.55-0.04-0.82c0.01-0.09,0.34-0.23,0.38-0.19c0.17,0.17,0.29,0.39,0.43,0.6  C858.8,74.94,858.54,75.08,858.29,75.22z"/>
<path xmlns="http://www.w3.org/2000/svg" class="st0" d="M862.88,71c-0.38,0.87-0.99,0.97-1.77,0.54c0.31-0.44,0.61-0.89,0.92-1.33C862.31,70.48,862.6,70.74,862.88,71z  "/>
<path xmlns="http://www.w3.org/2000/svg" class="st0" d="M873.74,68.59c-0.05-1.42-0.1-2.84-0.15-4.25c4.46-2.9,8.99-5.73,14.41-6.35c5.48-0.63,7.48,2.1,5.41,7.16  c-0.82,1.99-1.9,3.87-2.63,5.89c-1.14,3.15-0.09,4.25,3.29,3.47c12.97-2.98,25.49-7.28,37.52-12.95c9.24-4.35,18.35-3.41,27.5,0.12  c1.47,0.57,2.99,1.33,2.35,3.16c-0.6,1.74-2.22,1.69-3.78,1.22c-2.06-0.62-4.11-1.35-6.21-1.78c-10.6-2.2-21.51,6.08-21.53,16.66  c6.58-2.76,12.1-7.03,18.01-10.59c2.75-1.66,5.11-2.11,7.58,0.4c1.96,2,3.06,3.91,0.7,6.39c-0.75,0.79-1.7,1.64-1.46,3.62  c7.62,0.45,13.96-3.92,20.91-5.81c0.01,1.36,0.02,2.73,0.03,4.09c-6.65,3.45-13.75,5.65-21,7.29c-7.77,1.75-10.51-0.79-9.39-8.96  c-4.03,2.28-7.71,4.41-11.44,6.43c-3.2,1.74-6.39,3.51-10.04,4.19c-6.2,1.15-8.61-1.28-6.9-7.36c0.83-2.96,2.34-5.74,3.88-9.39  c-5.7,1.83-10.79,3.55-15.93,5.09c-7.14,2.14-14.26,4.45-21.81,4.58c-6.32,0.1-7.96-2.22-6-8.35c0.59-1.86,1.42-3.64,2.32-5.91  C876.89,66.42,875.5,68.12,873.74,68.59z"/>

<path xmlns="http://www.w3.org/2000/svg" class="st0" d="M1066.03,65.88c-0.57,1.49-1.72,2.38-3.1,3.07c-15.88,8.04-32.06,15.33-49.56,19.18  c-2.73,0.6-5.6,0.8-8.41,0.81c-9.07,0.04-12.29-4.45-9.77-13.18c0.44-1.51,1.6-2.89,1.07-5.17c-6.97,2.86-13.77,5.66-20.57,8.45  c-0.01-1.36-0.02-2.73-0.03-4.09c6.76-3.16,13.44-6.52,20.33-9.38c3.46-1.44,5.66-3.52,7.1-6.93c1.46-3.47,3.43-6.73,5.51-10.72  c-5.3,0-10.04,0.02-14.79-0.01c-1.31-0.01-2.99,0.09-3.05-1.71c-0.06-1.79,1.68-1.91,2.94-1.94c4.33-0.11,8.67-0.24,12.98,0  c3.04,0.17,4.68-0.79,6.11-3.63c4.49-8.91,9.54-17.52,16.09-25.13c3.86-4.48,8.26-8.26,14.37-9.26c8.29-1.36,11.61,2.22,9.05,10.17  c-3.17,9.84-9.54,17.79-16.75,26.5c6.74,0,12.74-0.08,18.74,0.04c2.16,0.04,5.73-0.97,5.82,2.01c0.1,3.22-3.52,2.04-5.6,2.14  c-7.62,0.36-16.01-2.09-22.66,0.92c-6.46,2.92-11.61,9.21-17.27,14.07c-4.95,4.26-7.12,10.71-7.91,17.23  c-0.42,3.48,2.18,4.56,5.2,4.48c4.2-0.11,8.2-1.26,12.13-2.64c12.56-4.4,24.58-10.05,36.66-15.58  C1062.43,64.75,1064.43,62.62,1066.03,65.88z M1023.62,43.49c2.97,0.38,5.07,0.28,6.89-1.78c5.95-6.72,11.56-13.7,15.64-21.72  c1.06-2.07,3.92-5.05,1.1-6.9c-2.65-1.74-5.11,1.21-7.02,3.27c-1.23,1.33-2.43,2.76-3.35,4.31  C1032.51,28.08,1028.23,35.54,1023.62,43.49z"/>
</svg>
