<?xml version="1.0" encoding="utf-8"?>
<!-- Generator: Adobe Illustrator 25.2.1, SVG Export Plug-In . SVG Version: 6.00 Build 0)  -->
<svg version="1.1" id="Layer_1" xmlns="http://www.w3.org/2000/svg" xmlns:xlink="http://www.w3.org/1999/xlink" x="0px" y="0px"
	 width="1129.1px" height="2188.7px" viewBox="0 0 1129.1 2188.7" style="enable-background:new 0 0 1129.1 2188.7;"
	 xml:space="preserve">
<style type="text/css">
	.st0{opacity:0.5;fill:none;stroke:#4B96E8;stroke-width:0.9997;stroke-miterlimit:3.9986;enable-background:new    ;}
	.st1{opacity:0.5;fill-rule:evenodd;clip-rule:evenodd;fill:#EDF9FF;enable-background:new    ;}
</style>
<g id="Group_4" transform="translate(409.692 -321.394)">
	<path id="Path_93" class="st0" d="M690,1971.5c95.2,204.6-52.7,491.5-270.9,356.9c-160.6-99.1-295.1-63.7-405.2-105.6
		c-210.2-80.2-272.8-213.4-166.6-410.9c300.3-558.7-98-254.3-233.5-704.5s351.3-856.1,508.7-541s440.5,326,570.3,572
		C777.5,1298.9,379,1302.8,690,1971.5z"/>
	<path id="Path_86" class="st1" d="M682.2,1817.1c81.6,175.2-45.6,421.1-233,305.9c-137.9-84.8-253.5-54.3-348.1-90.2
		c-180.6-68.6-234.2-182.6-142.9-351.9C216.6,1202-125.9,1463-242,1077.4S60.4,343.7,195.5,613.6s378.3,279,489.7,489.7
		C757.8,1240.8,415.3,1244.4,682.2,1817.1z"/>
</g>
</svg>
