<?xml version="1.0" encoding="utf-8"?>
<!-- Generator: Adobe Illustrator 25.2.1, SVG Export Plug-In . SVG Version: 6.00 Build 0)  -->
<svg version="1.1" id="Layer_1" xmlns="http://www.w3.org/2000/svg" xmlns:xlink="http://www.w3.org/1999/xlink" x="0px" y="0px"
	 width="836.8px" height="1245.4px" viewBox="0 0 836.8 1245.4" style="enable-background:new 0 0 836.8 1245.4;"
	 xml:space="preserve">
<style type="text/css">
	.st0{fill:#1B87D2;}
	.st1{fill:none;stroke:#E6F3FB;stroke-width:1.0001;stroke-miterlimit:4.0005;}
</style>
<g id="blog-right" transform="translate(-1303.227 -827.553)">
	<path id="Path_2" class="st0" d="M2005.5,1727.9c-231.9-106.5-249.6,11.4-359.8,123.9c-80.7,65.1-244.1-24.6-225.2-158.9
		c43.1-305.3-44.4-285.1-79.3-475.1c-14.7-80,11-153.5,63.9-185.2c174.7-104.8,504.4,161.6,632.6,350.5
		C2186.2,1592.9,2171,1819.9,2005.5,1727.9z"/>
	<path id="Path_4" class="st1" d="M1971.6,1704.9c-231.9-106.5-249.6,11.4-359.8,123.9c-80.7,65.1-244.1-24.6-225.2-158.9
		c43.1-305.3-44.4-285.1-79.3-475.1c-14.7-80,11-153.5,63.9-185.2c174.7-104.8,504.4,161.6,632.6,350.5
		C2152.3,1569.9,2137,1796.9,1971.6,1704.9z"/>
</g>
</svg>
